<?xml version="1.0" encoding="utf-8"?>
<!-- Generator: Adobe Illustrator 16.0.0, SVG Export Plug-In . SVG Version: 6.00 Build 0)  -->
<!DOCTYPE svg PUBLIC "-//W3C//DTD SVG 1.0//EN" "http://www.w3.org/TR/2001/REC-SVG-20010904/DTD/svg10.dtd">
<svg version="1.0" id="Layer_1" xmlns="http://www.w3.org/2000/svg" xmlns:xlink="http://www.w3.org/1999/xlink" x="0px" y="0px"
	 width="100px" height="100px" viewBox="0 0 100 100" enable-background="new 0 0 100 100" xml:space="preserve">
<rect x="43.333" y="10" fill="#FFCA28" width="6.668" height="11.667"/>
<rect x="10.001" y="43.333" fill="#FFCA28" width="11.666" height="6.667"/>
<rect x="65.134" y="19.03" transform="matrix(0.7071 0.7071 -0.7071 0.7071 37.6315 -41.1297)" fill="#FFCA28" width="6.667" height="11.668"/>
<rect x="21.536" y="19.029" transform="matrix(0.7073 -0.707 0.707 0.7073 -10.2952 24.8586)" fill="#FFCA28" width="6.665" height="11.663"/>
<path fill="#29B6F6" d="M66.667,43.333c-9.324,0-17.737,5.708-21.375,14.27c-1.672-0.563-3.43-0.938-5.291-0.938
	c-9.207,0-16.667,7.455-16.667,16.667C23.333,82.539,30.794,90,40.001,90h26.666C79.555,90,90,79.551,89.999,66.666
	C89.999,53.801,79.531,43.333,66.667,43.333z M66.667,83.333H40.001c-5.524,0-10-4.479-10-10c0-5.527,4.476-9.999,10-9.999
	c5.523,0,10,4.472,10,9.999h6.666c0-4.941-2.188-9.329-5.599-12.379C53.409,54.574,59.479,50,66.667,50
	c9.204,0,16.665,7.461,16.665,16.666C83.332,75.872,75.871,83.333,66.667,83.333z"/>
<path fill="#FFCA28" d="M38.079,56.779c-2.877-2.439-4.746-6.044-4.746-10.116c0-7.36,5.973-13.33,13.334-13.33
	c6.577,0,12.014,4.772,13.103,11.039l0.195-0.03c2.046-0.628,4.197-0.973,6.401-1.002c-1.588-9.46-9.788-16.672-19.699-16.672
	c-11.045,0-19.999,8.952-19.999,19.997c0,4.759,1.672,9.129,4.449,12.568C33.177,57.932,35.54,57.071,38.079,56.779z"/>
</svg>
